<mxfile host="65bd71144e">
    <diagram id="u6O34byFawVjHyFxsZu4" name="Pagina-1">
        <mxGraphModel dx="703" dy="419" grid="1" gridSize="10" guides="1" tooltips="1" connect="1" arrows="1" fold="1" page="1" pageScale="1" pageWidth="827" pageHeight="1169" math="0" shadow="0">
            <root>
                <mxCell id="0"/>
                <mxCell id="1" parent="0"/>
                <mxCell id="18" style="edgeStyle=none;html=1;exitX=0.75;exitY=1;exitDx=0;exitDy=0;fontSize=8;" parent="1" source="7" edge="1">
                    <mxGeometry relative="1" as="geometry">
                        <mxPoint x="570" y="200" as="targetPoint"/>
                    </mxGeometry>
                </mxCell>
                <mxCell id="80" style="edgeStyle=none;html=1;exitX=0.25;exitY=1;exitDx=0;exitDy=0;entryX=0.75;entryY=0;entryDx=0;entryDy=0;fontSize=24;" parent="1" source="7" target="20" edge="1">
                    <mxGeometry relative="1" as="geometry"/>
                </mxCell>
                <mxCell id="81" style="edgeStyle=none;html=1;exitX=0.5;exitY=1;exitDx=0;exitDy=0;entryX=0.75;entryY=0;entryDx=0;entryDy=0;fontSize=24;" parent="1" source="7" target="28" edge="1">
                    <mxGeometry relative="1" as="geometry"/>
                </mxCell>
                <mxCell id="7" value="" style="rounded=0;whiteSpace=wrap;html=1;" parent="1" vertex="1">
                    <mxGeometry x="360" y="80" width="280" height="120" as="geometry"/>
                </mxCell>
                <mxCell id="8" value="&lt;font style=&quot;font-size: 24px;&quot;&gt;PERSONA&lt;/font&gt;" style="text;html=1;strokeColor=none;fillColor=none;align=center;verticalAlign=middle;whiteSpace=wrap;rounded=0;" parent="1" vertex="1">
                    <mxGeometry x="440" y="125" width="60" height="30" as="geometry"/>
                </mxCell>
                <mxCell id="10" value="" style="endArrow=none;dashed=1;html=1;exitX=0.75;exitY=1;exitDx=0;exitDy=0;entryX=0.75;entryY=0;entryDx=0;entryDy=0;" parent="1" source="7" target="7" edge="1">
                    <mxGeometry width="50" height="50" relative="1" as="geometry">
                        <mxPoint x="470" y="145" as="sourcePoint"/>
                        <mxPoint x="520" y="95" as="targetPoint"/>
                        <Array as="points"/>
                    </mxGeometry>
                </mxCell>
                <mxCell id="13" value="&lt;font style=&quot;font-size: 8px;&quot;&gt;&lt;font style=&quot;&quot;&gt;id&amp;nbsp;&lt;br&gt;nome&lt;br&gt;cognome&lt;br&gt;data_nascita&lt;br&gt;Username&lt;br&gt;Passwor&lt;/font&gt;d&lt;/font&gt;" style="text;html=1;strokeColor=none;fillColor=none;align=center;verticalAlign=middle;whiteSpace=wrap;rounded=0;" parent="1" vertex="1">
                    <mxGeometry x="570" y="102.5" width="60" height="75" as="geometry"/>
                </mxCell>
                <mxCell id="48" style="edgeStyle=none;html=1;exitX=0.75;exitY=1;exitDx=0;exitDy=0;fontSize=18;entryX=0.25;entryY=0;entryDx=0;entryDy=0;" parent="1" source="20" target="28" edge="1">
                    <mxGeometry relative="1" as="geometry">
                        <mxPoint x="310" y="440" as="targetPoint"/>
                    </mxGeometry>
                </mxCell>
                <mxCell id="54" style="edgeStyle=none;html=1;exitX=0.5;exitY=1;exitDx=0;exitDy=0;entryX=0.5;entryY=0;entryDx=0;entryDy=0;fontSize=14;startArrow=none;" parent="1" source="20" target="73" edge="1">
                    <mxGeometry relative="1" as="geometry">
                        <Array as="points"/>
                    </mxGeometry>
                </mxCell>
                <mxCell id="20" value="" style="rounded=1;whiteSpace=wrap;html=1;fontSize=8;" parent="1" vertex="1">
                    <mxGeometry x="230" y="280" width="160" height="80" as="geometry"/>
                </mxCell>
                <mxCell id="21" value="&lt;font style=&quot;font-size: 18px;&quot;&gt;Cliente&lt;/font&gt;" style="text;html=1;strokeColor=none;fillColor=none;align=center;verticalAlign=middle;whiteSpace=wrap;rounded=0;fontSize=8;" parent="1" vertex="1">
                    <mxGeometry x="300" y="305" width="60" height="30" as="geometry"/>
                </mxCell>
                <mxCell id="24" value="" style="endArrow=none;dashed=1;html=1;fontSize=8;entryX=0.25;entryY=0;entryDx=0;entryDy=0;exitX=0.25;exitY=1;exitDx=0;exitDy=0;" parent="1" source="20" target="20" edge="1">
                    <mxGeometry width="50" height="50" relative="1" as="geometry">
                        <mxPoint x="250" y="345" as="sourcePoint"/>
                        <mxPoint x="300" y="295" as="targetPoint"/>
                    </mxGeometry>
                </mxCell>
                <mxCell id="25" value="&lt;font style=&quot;font-size: 12px;&quot;&gt;id&lt;/font&gt;" style="text;html=1;strokeColor=none;fillColor=none;align=center;verticalAlign=middle;whiteSpace=wrap;rounded=0;fontSize=8;" parent="1" vertex="1">
                    <mxGeometry x="220" y="305" width="60" height="30" as="geometry"/>
                </mxCell>
                <mxCell id="46" style="edgeStyle=none;html=1;exitX=0.75;exitY=1;exitDx=0;exitDy=0;entryX=0.5;entryY=0;entryDx=0;entryDy=0;fontSize=18;startArrow=none;" parent="1" source="28" target="71" edge="1">
                    <mxGeometry relative="1" as="geometry"/>
                </mxCell>
                <mxCell id="28" value="" style="rounded=1;whiteSpace=wrap;html=1;fontSize=8;" parent="1" vertex="1">
                    <mxGeometry x="360" y="400" width="200" height="80" as="geometry"/>
                </mxCell>
                <mxCell id="30" value="&lt;span style=&quot;font-size: 18px;&quot;&gt;Istruttori&lt;/span&gt;" style="text;html=1;strokeColor=none;fillColor=none;align=center;verticalAlign=middle;whiteSpace=wrap;rounded=0;fontSize=8;" parent="1" vertex="1">
                    <mxGeometry x="480" y="425" width="60" height="30" as="geometry"/>
                </mxCell>
                <mxCell id="31" value="&lt;span style=&quot;font-size: 12px;&quot;&gt;id&lt;br&gt;nome_corso&lt;br&gt;&lt;/span&gt;" style="text;html=1;strokeColor=none;fillColor=none;align=center;verticalAlign=middle;whiteSpace=wrap;rounded=0;fontSize=8;" parent="1" vertex="1">
                    <mxGeometry x="380" y="425" width="50" height="30" as="geometry"/>
                </mxCell>
                <mxCell id="35" value="" style="endArrow=none;dashed=1;html=1;fontSize=8;entryX=0.25;entryY=0;entryDx=0;entryDy=0;exitX=0.25;exitY=1;exitDx=0;exitDy=0;" parent="1" edge="1">
                    <mxGeometry width="50" height="50" relative="1" as="geometry">
                        <mxPoint x="450" y="480" as="sourcePoint"/>
                        <mxPoint x="450" y="400" as="targetPoint"/>
                    </mxGeometry>
                </mxCell>
                <mxCell id="37" value="" style="rounded=1;whiteSpace=wrap;html=1;fontSize=18;" parent="1" vertex="1">
                    <mxGeometry x="560" y="280" width="160" height="85" as="geometry"/>
                </mxCell>
                <mxCell id="38" value="&lt;span style=&quot;font-size: 18px;&quot;&gt;Manager&lt;/span&gt;" style="text;html=1;strokeColor=none;fillColor=none;align=center;verticalAlign=middle;whiteSpace=wrap;rounded=0;fontSize=8;" parent="1" vertex="1">
                    <mxGeometry x="640" y="307.5" width="60" height="30" as="geometry"/>
                </mxCell>
                <mxCell id="39" value="" style="endArrow=none;dashed=1;html=1;fontSize=8;entryX=0.25;entryY=0;entryDx=0;entryDy=0;exitX=0.25;exitY=1;exitDx=0;exitDy=0;" parent="1" edge="1">
                    <mxGeometry width="50" height="50" relative="1" as="geometry">
                        <mxPoint x="620" y="362.5" as="sourcePoint"/>
                        <mxPoint x="620" y="282.5" as="targetPoint"/>
                    </mxGeometry>
                </mxCell>
                <mxCell id="41" value="&lt;font style=&quot;font-size: 12px;&quot;&gt;id&lt;/font&gt;" style="text;html=1;strokeColor=none;fillColor=none;align=center;verticalAlign=middle;whiteSpace=wrap;rounded=0;fontSize=8;" parent="1" vertex="1">
                    <mxGeometry x="560" y="307.5" width="60" height="30" as="geometry"/>
                </mxCell>
                <mxCell id="91" style="edgeStyle=none;html=1;exitX=0.5;exitY=1;exitDx=0;exitDy=0;entryX=1;entryY=0.5;entryDx=0;entryDy=0;" edge="1" parent="1" source="42" target="84">
                    <mxGeometry relative="1" as="geometry"/>
                </mxCell>
                <mxCell id="42" value="" style="rounded=1;whiteSpace=wrap;html=1;fontSize=8;" parent="1" vertex="1">
                    <mxGeometry x="610" y="560" width="170" height="80" as="geometry"/>
                </mxCell>
                <mxCell id="43" value="&lt;span style=&quot;font-size: 18px;&quot;&gt;Corsi&lt;/span&gt;" style="text;html=1;strokeColor=none;fillColor=none;align=center;verticalAlign=middle;whiteSpace=wrap;rounded=0;fontSize=8;" parent="1" vertex="1">
                    <mxGeometry x="700" y="585" width="60" height="30" as="geometry"/>
                </mxCell>
                <mxCell id="44" value="" style="endArrow=none;dashed=1;html=1;fontSize=8;entryX=0.25;entryY=0;entryDx=0;entryDy=0;exitX=0.25;exitY=1;exitDx=0;exitDy=0;" parent="1" edge="1">
                    <mxGeometry width="50" height="50" relative="1" as="geometry">
                        <mxPoint x="669.5" y="640" as="sourcePoint"/>
                        <mxPoint x="669.5" y="560" as="targetPoint"/>
                    </mxGeometry>
                </mxCell>
                <mxCell id="45" value="&lt;span style=&quot;font-size: 12px;&quot;&gt;id&lt;br&gt;&lt;/span&gt;" style="text;html=1;strokeColor=none;fillColor=none;align=center;verticalAlign=middle;whiteSpace=wrap;rounded=0;fontSize=8;" parent="1" vertex="1">
                    <mxGeometry x="615" y="585" width="50" height="30" as="geometry"/>
                </mxCell>
                <mxCell id="90" style="edgeStyle=none;html=1;exitX=0.5;exitY=1;exitDx=0;exitDy=0;entryX=0;entryY=0.5;entryDx=0;entryDy=0;" edge="1" parent="1" source="49" target="85">
                    <mxGeometry relative="1" as="geometry"/>
                </mxCell>
                <mxCell id="49" value="" style="rounded=1;whiteSpace=wrap;html=1;fontSize=8;" parent="1" vertex="1">
                    <mxGeometry x="130" y="560" width="200" height="80" as="geometry"/>
                </mxCell>
                <mxCell id="50" value="" style="endArrow=none;dashed=1;html=1;fontSize=8;entryX=0.25;entryY=0;entryDx=0;entryDy=0;exitX=0.25;exitY=1;exitDx=0;exitDy=0;" parent="1" edge="1">
                    <mxGeometry width="50" height="50" relative="1" as="geometry">
                        <mxPoint x="180" y="640" as="sourcePoint"/>
                        <mxPoint x="180" y="560" as="targetPoint"/>
                    </mxGeometry>
                </mxCell>
                <mxCell id="51" value="&lt;font style=&quot;font-size: 14px;&quot;&gt;Piano_abbonamento&lt;/font&gt;" style="text;html=1;strokeColor=none;fillColor=none;align=center;verticalAlign=middle;whiteSpace=wrap;rounded=0;fontSize=8;" parent="1" vertex="1">
                    <mxGeometry x="230" y="585" width="50" height="30" as="geometry"/>
                </mxCell>
                <mxCell id="52" value="&lt;span style=&quot;font-size: 12px;&quot;&gt;id&lt;br&gt;nome&lt;br&gt;&lt;/span&gt;" style="text;html=1;strokeColor=none;fillColor=none;align=center;verticalAlign=middle;whiteSpace=wrap;rounded=0;fontSize=8;" parent="1" vertex="1">
                    <mxGeometry x="130" y="585" width="50" height="30" as="geometry"/>
                </mxCell>
                <mxCell id="72" value="" style="edgeStyle=none;html=1;exitX=0.5;exitY=0;exitDx=0;exitDy=0;entryX=0.75;entryY=1;entryDx=0;entryDy=0;fontSize=18;endArrow=none;" parent="1" source="42" target="71" edge="1">
                    <mxGeometry relative="1" as="geometry">
                        <mxPoint x="595" y="560" as="sourcePoint"/>
                        <mxPoint x="510" y="480" as="targetPoint"/>
                    </mxGeometry>
                </mxCell>
                <mxCell id="71" value="1:1" style="text;html=1;strokeColor=none;fillColor=none;align=center;verticalAlign=middle;whiteSpace=wrap;rounded=0;fontSize=14;" parent="1" vertex="1">
                    <mxGeometry x="530" y="510" width="60" height="30" as="geometry"/>
                </mxCell>
                <mxCell id="73" value="1:N" style="text;html=1;strokeColor=none;fillColor=none;align=center;verticalAlign=middle;whiteSpace=wrap;rounded=0;fontSize=14;" parent="1" vertex="1">
                    <mxGeometry x="260" y="455" width="60" height="30" as="geometry"/>
                </mxCell>
                <mxCell id="78" value="" style="endArrow=none;html=1;fontSize=24;entryX=0.5;entryY=0;entryDx=0;entryDy=0;exitX=0.5;exitY=1;exitDx=0;exitDy=0;" parent="1" source="73" target="49" edge="1">
                    <mxGeometry width="50" height="50" relative="1" as="geometry">
                        <mxPoint x="335" y="510" as="sourcePoint"/>
                        <mxPoint x="285" y="560" as="targetPoint"/>
                    </mxGeometry>
                </mxCell>
                <mxCell id="82" value="" style="endArrow=classic;html=1;fontSize=24;exitX=0.75;exitY=0;exitDx=0;exitDy=0;entryX=0.75;entryY=0;entryDx=0;entryDy=0;" parent="1" target="37" edge="1">
                    <mxGeometry width="50" height="50" relative="1" as="geometry">
                        <mxPoint x="615" y="200" as="sourcePoint"/>
                        <mxPoint x="565" y="250" as="targetPoint"/>
                    </mxGeometry>
                </mxCell>
                <mxCell id="84" value="" style="rounded=1;whiteSpace=wrap;html=1;" vertex="1" parent="1">
                    <mxGeometry x="340" y="680" width="180" height="60" as="geometry"/>
                </mxCell>
                <mxCell id="85" value="&lt;span style=&quot;font-size: 12px;&quot;&gt;id_piano&lt;br&gt;id_corso&lt;br&gt;&lt;/span&gt;" style="text;html=1;strokeColor=none;fillColor=none;align=center;verticalAlign=middle;whiteSpace=wrap;rounded=0;fontSize=8;" vertex="1" parent="1">
                    <mxGeometry x="340" y="695" width="60" height="30" as="geometry"/>
                </mxCell>
                <mxCell id="87" value="&lt;span style=&quot;font-size: 14px;&quot;&gt;piano_corsi&lt;/span&gt;" style="text;html=1;strokeColor=none;fillColor=none;align=center;verticalAlign=middle;whiteSpace=wrap;rounded=0;fontSize=8;" vertex="1" parent="1">
                    <mxGeometry x="435" y="695" width="50" height="30" as="geometry"/>
                </mxCell>
                <mxCell id="88" value="" style="endArrow=none;dashed=1;html=1;fontSize=8;entryX=0.326;entryY=0.022;entryDx=0;entryDy=0;exitX=0.333;exitY=1;exitDx=0;exitDy=0;exitPerimeter=0;entryPerimeter=0;" edge="1" parent="1" source="84" target="84">
                    <mxGeometry width="50" height="50" relative="1" as="geometry">
                        <mxPoint x="400" y="750" as="sourcePoint"/>
                        <mxPoint x="400" y="670" as="targetPoint"/>
                        <Array as="points"/>
                    </mxGeometry>
                </mxCell>
                <mxCell id="99" style="edgeStyle=none;html=1;exitX=0;exitY=0.25;exitDx=0;exitDy=0;entryX=0.75;entryY=0;entryDx=0;entryDy=0;" edge="1" parent="1" source="20" target="92">
                    <mxGeometry relative="1" as="geometry"/>
                </mxCell>
                <mxCell id="92" value="" style="rounded=1;whiteSpace=wrap;html=1;" vertex="1" parent="1">
                    <mxGeometry x="40" y="380" width="120" height="60" as="geometry"/>
                </mxCell>
                <mxCell id="95" value="&lt;span style=&quot;font-size: 14px;&quot;&gt;Scheda&lt;/span&gt;" style="text;html=1;strokeColor=none;fillColor=none;align=center;verticalAlign=middle;whiteSpace=wrap;rounded=0;fontSize=8;" vertex="1" parent="1">
                    <mxGeometry x="100" y="395" width="50" height="30" as="geometry"/>
                </mxCell>
                <mxCell id="97" value="" style="endArrow=none;dashed=1;html=1;fontSize=8;" edge="1" parent="1">
                    <mxGeometry width="50" height="50" relative="1" as="geometry">
                        <mxPoint x="80" y="440" as="sourcePoint"/>
                        <mxPoint x="80" y="380" as="targetPoint"/>
                    </mxGeometry>
                </mxCell>
                <mxCell id="98" value="&lt;span style=&quot;font-size: 12px;&quot;&gt;id&lt;br&gt;&lt;/span&gt;" style="text;html=1;strokeColor=none;fillColor=none;align=center;verticalAlign=middle;whiteSpace=wrap;rounded=0;fontSize=8;" vertex="1" parent="1">
                    <mxGeometry x="40" y="395" width="40" height="30" as="geometry"/>
                </mxCell>
            </root>
        </mxGraphModel>
    </diagram>
</mxfile>